<?xml version="1.0" standalone="no"?>
<!DOCTYPE svg PUBLIC "-//W3C//DTD SVG 20010904//EN"
 "http://www.w3.org/TR/2001/REC-SVG-20010904/DTD/svg10.dtd">
<svg version="1.0" xmlns="http://www.w3.org/2000/svg"
 width="1312.000000pt" height="640.000000pt" viewBox="0 0 1312.000000 640.000000"
 preserveAspectRatio="xMidYMid meet">

<g transform="translate(0.000000,640.000000) scale(0.100000,-0.100000)"
fill="#000000" stroke="none">
<path d="M5640 5186 c-314 -140 -569 -384 -724 -693 -220 -439 -303 -1149
-205 -1743 23 -141 72 -338 119 -480 100 -307 303 -575 575 -760 83 -56 195
-114 195 -101 0 6 -41 38 -92 73 -175 119 -331 286 -443 472 -103 171 -176
382 -236 679 -130 643 -41 1431 214 1900 141 257 378 487 638 618 81 40 92 49
81 64 -12 17 -25 14 -122 -29z"/>
<path d="M10119 5168 c-76 -113 -220 -298 -349 -447 -69 -80 -377 -441 -685
-801 -307 -360 -621 -725 -697 -811 l-138 -157 0 -422 0 -422 31 6 c17 3 42 6
55 6 l24 0 0 418 0 418 106 119 c59 66 391 453 739 860 347 407 669 783 714
835 83 95 215 266 304 393 l48 67 -55 0 -55 0 -42 -62z"/>
<path d="M2794 5088 c-104 -144 -218 -288 -343 -431 -104 -119 -931 -1088
-1106 -1296 -66 -78 -119 -147 -117 -152 1 -6 -1 -8 -6 -5 -5 3 -15 -5 -23
-16 -8 -12 -32 -39 -54 -61 -22 -22 -32 -38 -23 -34 10 3 18 2 18 -2 0 -5 -6
-11 -12 -14 -10 -3 -10 -7 -1 -17 13 -14 37 -4 27 12 -4 6 -2 8 3 5 12 -8 93
84 879 1001 728 851 815 956 905 1100 l21 32 -40 0 c-39 0 -40 -1 -128 -122z
m-1634 -1968 c0 -5 -5 -10 -11 -10 -5 0 -7 5 -4 10 3 6 8 10 11 10 2 0 4 -4 4
-10z"/>
<path d="M6815 4989 c-41 -6 -95 -26 -170 -64 -60 -30 -118 -55 -127 -55 -26
0 -84 -56 -107 -103 -23 -47 -38 -154 -47 -332 -10 -179 2 -217 60 -195 33 12
38 33 15 76 -11 22 -19 59 -19 87 0 83 30 109 76 66 l22 -20 16 71 c19 87 39
131 67 149 26 16 91 16 216 0 108 -13 172 -7 220 21 19 11 36 20 38 20 3 0 14
-19 26 -42 20 -40 22 -41 36 -22 8 10 31 53 51 93 32 64 37 85 37 142 0 58 -4
71 -24 93 -24 26 -25 26 -175 25 -83 -1 -178 -5 -211 -10z"/>
<path d="M6457 4429 c4 -13 8 -18 11 -10 2 7 -1 18 -6 23 -8 8 -9 4 -5 -13z"/>
<path d="M6480 4369 c0 -8 4 -20 9 -27 7 -11 9 -11 14 1 3 9 -1 21 -9 27 -11
10 -14 10 -14 -1z"/>
<path d="M2995 4053 c-74 -104 -68 -56 -73 -625 l-5 -518 52 0 51 0 0 396 c0
218 5 483 11 590 6 107 9 198 7 204 -2 5 -21 -16 -43 -47z"/>
<path d="M10272 4029 c-35 -49 -53 -84 -56 -112 -8 -60 -14 -328 -7 -322 2 3
6 13 7 21 1 9 6 23 10 32 4 9 8 23 10 30 1 8 6 17 10 20 4 4 4 -1 1 -10 -4
-10 -2 -18 3 -18 6 0 10 7 10 15 0 8 7 15 15 15 8 0 15 5 15 11 0 5 -5 7 -12
3 -7 -4 -8 -3 -4 4 4 6 12 9 20 6 7 -3 13 1 13 8 1 7 6 91 13 186 7 95 10 175
8 178 -3 2 -28 -28 -56 -67z m19 -282 c-10 -9 -11 -8 -5 6 3 10 9 15 12 12 3
-3 0 -11 -7 -18z"/>
<path d="M6663 4002 c-6 -10 -36 -48 -68 -85 -52 -62 -54 -67 -32 -67 36 0 72
33 96 89 11 28 31 57 43 65 l22 16 -24 0 c-14 0 -30 -8 -37 -18z"/>
<path d="M7060 4003 c1 -21 40 -157 48 -165 12 -12 205 -78 211 -73 2 3 -5 14
-17 25 -12 12 -22 17 -22 13 0 -4 -13 7 -29 24 -16 18 -32 29 -35 26 -6 -6
-10 13 -7 30 1 5 -2 6 -7 3 -4 -2 -18 9 -31 25 -13 16 -30 29 -38 29 -8 0 -11
5 -8 10 3 6 2 10 -2 10 -5 0 -21 11 -36 25 -15 14 -27 22 -27 18z"/>
<path d="M7984 3671 c3 -35 6 -74 6 -87 0 -16 5 -22 14 -18 11 4 11 17 -1 82
-18 96 -28 108 -19 23z"/>
<path d="M10235 3650 c-3 -6 1 -7 9 -4 18 7 21 14 7 14 -6 0 -13 -4 -16 -10z"/>
<path d="M1105 3043 c3 -21 -13 -45 -26 -37 -5 3 -6 -3 -2 -13 6 -15 5 -16 -9
-5 -14 11 -16 10 -11 -8 5 -21 8 -19 40 16 33 38 37 54 16 61 -6 2 -10 -4 -8
-14z"/>
<path d="M1046 2937 c3 -10 9 -15 12 -12 3 3 0 11 -7 18 -10 9 -11 8 -5 -6z"/>
<path d="M1032 2913 c5 -17 2 -20 -11 -15 -14 5 -13 2 3 -23 l19 -30 -23 20
c-13 11 -20 14 -15 6 6 -11 4 -13 -8 -8 -14 5 -15 3 -5 -13 9 -14 9 -24 0 -42
-11 -23 -11 -23 -6 3 3 15 1 30 -4 33 -6 4 -10 -130 -11 -369 l-2 -375 51 0
c28 0 49 4 46 9 -3 4 -6 185 -6 401 -1 349 -3 394 -17 409 -15 15 -16 14 -11
-6z"/>
<path d="M2083 2113 l827 -3 0 -243 c0 -136 -7 -308 -15 -392 -8 -82 -15 -158
-15 -167 0 -17 29 -18 480 -18 313 0 480 3 480 10 0 7 -150 10 -431 10 l-432
0 7 48 c22 174 29 352 27 640 l-1 122 -877 -2 -878 -3 828 -2z"/>
<path d="M3922 2115 c2 -3 92 -9 199 -15 107 -5 215 -13 242 -16 38 -5 47 -4
47 8 0 12 -19 17 -82 21 -98 8 -414 9 -406 2z"/>
</g>
</svg>
