<?xml version="1.0" standalone="no"?>
<!DOCTYPE svg PUBLIC "-//W3C//DTD SVG 20010904//EN"
 "http://www.w3.org/TR/2001/REC-SVG-20010904/DTD/svg10.dtd">
<svg version="1.0" xmlns="http://www.w3.org/2000/svg"
 width="985.000000pt" height="954.000000pt" viewBox="0 0 985.000000 954.000000"
 preserveAspectRatio="xMidYMid meet">

<g transform="translate(0.000000,954.000000) scale(0.100000,-0.100000)"
fill="#000000" stroke="none">
<path d="M1650 4144 c0 -59 5 -81 28 -124 16 -32 35 -55 47 -57 48 -9 85 -11
81 -5 -2 4 4 8 15 8 10 0 19 -4 19 -8 0 -4 7 -5 16 -1 9 3 20 0 25 -8 7 -11 9
-11 9 -1 0 7 5 10 10 7 6 -3 10 -2 10 3 0 5 14 7 30 4 17 -2 30 -9 30 -15 0
-6 7 -2 16 9 8 10 13 13 9 7 -4 -8 0 -13 9 -13 8 0 22 -3 32 -7 14 -5 16 -3
10 13 -6 15 -5 17 5 7 7 -7 17 -13 22 -13 4 0 5 6 1 13 -6 9 -5 9 7 0 19 -15
81 -25 73 -11 -4 6 2 5 15 -1 16 -9 21 -9 21 1 0 8 3 9 8 3 10 -15 69 -18 77
-4 6 8 10 8 16 -2 7 -11 9 -11 9 -1 0 8 5 10 13 5 10 -6 75 -11 187 -13 8 0
29 -1 45 -1 17 0 39 0 50 0 24 1 91 0 123 -3 12 0 22 -4 22 -8 0 -4 13 -3 30
2 16 5 32 5 35 0 6 -9 24 -8 43 3 7 5 12 3 12 -3 0 -6 5 -8 11 -5 17 11 59 13
59 3 0 -5 10 -6 21 -3 16 6 20 4 13 -6 -7 -12 -5 -12 9 -1 9 8 21 11 27 7 5
-3 10 0 10 7 0 10 2 10 8 1 5 -9 42 -14 109 -16 56 -1 99 1 97 5 -3 4 6 4 20
-2 19 -7 26 -6 26 3 0 9 2 9 8 -1 7 -10 15 -10 36 -2 17 6 25 6 21 0 -4 -6 10
-7 36 -4 27 4 39 3 35 -4 -4 -7 3 -8 24 -2 28 8 67 6 77 -4 2 -2 19 0 38 4 20
5 33 4 29 -1 -3 -5 0 -9 5 -9 6 0 11 4 11 8 0 4 9 8 20 8 11 0 20 -4 20 -9 0
-4 4 -6 9 -2 5 3 12 1 15 -4 3 -5 15 -7 26 -4 11 3 17 10 13 17 -4 6 0 5 9 -2
10 -8 26 -10 44 -6 19 5 25 4 20 -5 -9 -14 -3 -14 28 1 22 9 30 8 48 -8 18
-15 20 -16 9 -1 -12 15 -11 17 3 17 9 0 16 -4 16 -10 0 -11 28 -9 49 4 10 6
12 5 7 -3 -6 -8 0 -10 21 -6 44 9 143 11 130 3 -7 -4 6 -7 28 -6 22 0 45 4 50
9 6 4 17 3 25 -3 12 -8 11 -8 -5 -3 -15 5 -17 3 -9 -5 9 -9 17 -9 33 -1 12 7
21 8 21 2 0 -5 15 -6 37 -1 25 6 42 5 52 -3 11 -9 13 -9 8 0 -5 8 0 10 20 4
16 -4 45 -6 66 -4 24 2 36 0 32 -7 -3 -5 -1 -10 4 -10 6 0 11 4 11 9 0 5 7 11
14 14 10 4 13 1 10 -8 -4 -10 0 -12 15 -8 11 3 18 10 15 17 -3 6 1 3 9 -7 12
-15 19 -16 36 -8 23 13 34 14 28 4 -8 -12 187 -10 195 2 5 6 8 6 8 -1 0 -13
-28 -13 1673 -14 l1257 0 0 -152 c0 -84 3 -183 6 -220 l7 -66 162 3 c90 1 169
6 176 10 7 5 10 4 5 -3 -4 -7 3 -8 21 -3 27 7 28 11 91 312 38 175 67 338 69
384 l4 80 -30 -52 c-35 -59 -79 -96 -140 -118 -39 -13 -394 -15 -3135 -15
-2556 1 -3097 3 -3129 14 -57 21 -104 62 -137 119 l-30 52 0 -71z"/>
<path d="M2630 3936 c0 -2 7 -7 16 -10 8 -3 12 -2 9 4 -6 10 -25 14 -25 6z"/>
<path d="M1854 3853 c3 -10 28 -108 56 -218 76 -305 69 -282 93 -279 12 1 22
3 22 4 0 1 60 2 133 3 l132 1 0 253 0 253 -221 0 c-205 0 -220 -1 -215 -17z"/>
<path d="M9520 720 c0 -3 -47 -5 -104 -5 -59 0 -102 -4 -98 -9 3 -5 -1 -6 -8
-1 -7 4 -45 7 -84 5 -148 -5 -221 -8 -226 -10 -3 -1 -47 -2 -97 -2 l-93 0 1
-52 c0 -76 25 -395 30 -400 7 -8 356 61 501 98 254 66 400 128 463 198 49 53
48 89 -5 140 -23 21 -51 39 -63 40 -74 5 -157 2 -157 -7 0 -6 -3 -6 -8 1 -7
10 -52 14 -52 4z"/>
<path d="M7490 654 c0 -7 -21 -10 -60 -8 -33 1 -58 -1 -56 -4 2 -4 -78 -8
-177 -8 -176 -2 -405 -9 -612 -19 -55 -3 -171 -7 -257 -9 -86 -2 -162 -7 -169
-11 -7 -5 -10 -4 -6 2 5 7 -4 9 -26 4 -17 -4 -69 -6 -114 -6 -46 1 -83 -1 -83
-5 0 -5 -15 -4 -34 0 -18 4 -40 3 -49 -1 -10 -6 -18 -5 -22 1 -4 6 -11 7 -17
4 -6 -4 -63 -9 -127 -11 -64 -2 -168 -5 -231 -8 -63 -2 -190 -5 -282 -7 -93
-2 -168 -7 -168 -11 0 -4 -8 -3 -19 2 -10 6 -21 7 -25 4 -6 -6 -73 -10 -323
-16 -78 -2 -145 -6 -148 -9 -4 -3 -20 -2 -36 2 -16 5 -27 6 -25 2 2 -4 -46 -7
-107 -7 -62 1 -122 -3 -135 -7 -16 -6 -21 -5 -16 4 5 7 3 8 -5 4 -12 -8 -151
-14 -418 -19 -80 -1 -133 -6 -133 -12 0 -5 -5 -3 -10 5 -5 8 -10 11 -10 5 0
-6 -50 -10 -131 -10 -72 0 -132 -2 -134 -5 -2 -3 -62 -5 -134 -5 -72 0 -131
-3 -131 -6 0 -5 -37 -4 -50 1 -3 1 -9 2 -14 1 -11 -2 -181 -11 -206 -11 -17 0
-86 -2 -170 -4 -31 -1 -62 -6 -69 -11 -10 -5 -12 -4 -7 4 6 8 1 10 -16 6 -12
-3 -78 -7 -146 -9 -67 -1 -124 -5 -126 -7 -2 -2 -6 -84 -10 -181 -5 -139 -3
-178 6 -178 7 0 101 -7 208 -15 1540 -116 3589 -109 5163 17 l148 12 -6 260
c-4 144 -8 266 -10 272 -3 11 -173 11 -230 0 -11 -2 -23 2 -27 8 -6 8 -8 8 -8
0z"/>
<path d="M1025 420 c-22 -3 -67 -5 -100 -5 -33 0 -63 -4 -67 -10 -5 -6 -8 -6
-8 2 0 9 -7 10 -24 3 -13 -5 -27 -6 -30 -3 -7 8 -115 10 -111 3 2 -3 -25 -5
-58 -4 -35 1 -65 -4 -69 -10 -6 -8 -8 -8 -8 0 0 7 -16 9 -42 7 -24 -2 -69 -5
-100 -5 -32 -1 -58 -3 -58 -4 0 -26 801 -189 820 -167 4 4 10 51 13 105 l5 96
-61 -1 c-34 -1 -80 -4 -102 -7z"/>
</g>
</svg>
