<?xml version="1.0" encoding="UTF-8"?>
<!DOCTYPE svg PUBLIC "-//W3C//DTD SVG 1.1//EN" "http://www.w3.org/Graphics/SVG/1.1/DTD/svg11.dtd">
<svg xmlns="http://www.w3.org/2000/svg" version="1.1" width="1312px" height="640px" style="shape-rendering:geometricPrecision; text-rendering:geometricPrecision; image-rendering:optimizeQuality; fill-rule:evenodd; clip-rule:evenodd" xmlns:xlink="http://www.w3.org/1999/xlink">
<g><path style="opacity:0.496" fill="#68e2fe" d="M 402.5,-0.5 C 420.167,-0.5 437.833,-0.5 455.5,-0.5C 483.269,2.46088 510.936,6.96088 538.5,13C 588.565,26.4328 638.898,38.7662 689.5,50C 734.61,59.5327 779.943,60.866 825.5,54C 855.344,48.1223 885.011,41.4557 914.5,34C 947.739,25.5648 981.405,22.5648 1015.5,25C 1058.96,28.808 1094.13,47.6414 1121,81.5C 1128.39,91.8962 1135.39,102.563 1142,113.5C 1154.74,138.657 1167.74,163.657 1181,188.5C 1195.45,213.622 1213.61,235.789 1235.5,255C 1254.93,269.759 1272.43,286.592 1288,305.5C 1300.68,324.038 1308.51,344.371 1311.5,366.5C 1311.5,378.5 1311.5,390.5 1311.5,402.5C 1304.25,447.597 1280.91,481.764 1241.5,505C 1228.23,512.467 1214.57,519.134 1200.5,525C 1168.34,536.607 1136.34,548.607 1104.5,561C 1073.73,576.799 1043.73,593.799 1014.5,612C 985.215,627.377 954.215,636.543 921.5,639.5C 906.833,639.5 892.167,639.5 877.5,639.5C 842.703,636.253 808.37,629.753 774.5,620C 738.787,609.155 703.12,598.155 667.5,587C 623.39,572.978 578.224,565.144 532,563.5C 495.28,563.926 459.78,570.759 425.5,584C 393.398,596.59 361.065,608.59 328.5,620C 295.712,631.446 262.046,635.78 227.5,633C 205.324,630.493 186.158,621.659 170,606.5C 160.594,593.092 149.76,580.925 137.5,570C 116.776,554.944 95.7763,540.277 74.5,526C 31.7139,491.604 6.71385,447.104 -0.5,392.5C -0.5,379.167 -0.5,365.833 -0.5,352.5C 7.43842,291.772 36.4384,243.939 86.5,209C 118.185,189.318 148.185,167.318 176.5,143C 198.862,120.972 220.862,98.6386 242.5,76C 261.84,56.9839 283.174,40.6506 306.5,27C 336.731,11.2791 368.731,2.11241 402.5,-0.5 Z"/></g>
<g><path style="opacity:0.999" fill="#4ba2b7" d="M 606.5,111.5 C 606.068,110.29 605.401,109.29 604.5,108.5C 606.631,107.686 608.964,107.186 611.5,107C 625.833,106.333 640.167,106.333 654.5,107C 658.872,107.421 663.205,108.088 667.5,109C 651.86,108.432 636.194,108.432 620.5,109C 615.821,109.882 611.154,110.715 606.5,111.5 Z"/></g>
<g><path style="opacity:1" fill="#3a7e8e" d="M 835.5,363.5 C 834.669,378.328 834.169,393.328 834,408.5C 833.25,409.126 832.416,409.626 831.5,410C 832.308,410.308 832.975,410.808 833.5,411.5C 832.273,412.59 831.44,413.924 831,415.5C 830.667,415.167 830.333,414.833 830,414.5C 828.887,415.76 828.72,416.927 829.5,418C 826.712,418.726 825.212,420.56 825,423.5C 824.5,396.835 824.333,370.169 824.5,343.5C 881.799,277.57 938.632,211.237 995,144.5C 1001.58,135.675 1007.91,126.675 1014,117.5C 1018.08,116.371 1022.25,116.204 1026.5,117C 1016.28,131.947 1005.44,146.447 994,160.5C 941.707,221.795 889.04,282.795 836,343.5C 835.5,350.158 835.334,356.825 835.5,363.5 Z"/></g>
<g><path style="opacity:1" fill="#418d9f" d="M 604.5,108.5 C 605.401,109.29 606.068,110.29 606.5,111.5C 576.141,117.675 550.141,131.675 528.5,153.5C 527.737,152.732 526.737,152.232 525.5,152C 528.167,150.333 530.833,148.667 533.5,147C 532.5,146.667 531.5,146.333 530.5,146C 532.863,143.916 532.863,142.083 530.5,140.5C 551.942,122.789 576.609,112.122 604.5,108.5 Z"/></g>
<g><path style="opacity:1" fill="#606161" d="M 722.5,147.5 C 722.275,154.842 720.608,161.842 717.5,168.5C 716.263,169.965 715.263,171.632 714.5,173.5C 713.094,173.973 712.427,174.973 712.5,176.5C 710.171,174.159 708.171,171.492 706.5,168.5C 703.294,171.102 699.628,172.602 695.5,173C 686.462,173.4 677.462,172.9 668.5,171.5C 663.218,170.563 659.051,172.23 656,176.5C 653.865,182.705 652.199,189.038 651,195.5C 648.668,189.992 645.668,189.325 642,193.5C 641.333,196.833 641.333,200.167 642,203.5C 643.255,206.916 644.255,210.249 645,213.5C 642.489,215.956 639.656,216.623 636.5,215.5C 635.007,211.69 634.34,207.69 634.5,203.5C 635.611,191.831 636.778,180.164 638,168.5C 639.538,162.588 642.705,157.755 647.5,154C 658.212,149.308 668.878,144.641 679.5,140C 692.167,139.333 704.833,139.333 717.5,140C 720.276,141.708 721.943,144.208 722.5,147.5 Z"/></g>
<g><path style="opacity:1" fill="#56b3c8" d="M 722.5,147.5 C 724.796,149.401 726.629,151.734 728,154.5C 728.706,159.407 729.873,164.074 731.5,168.5C 726.819,167.238 722.152,167.238 717.5,168.5C 720.608,161.842 722.275,154.842 722.5,147.5 Z"/></g>
<g><path style="opacity:1" fill="#f5af87" d="M 731.5,168.5 C 747.267,170.041 759.6,177.208 768.5,190C 762.63,193.102 756.63,195.935 750.5,198.5C 748.393,197.7 746.226,197.033 744,196.5C 739.179,198.671 734.346,198.837 729.5,197C 728.978,196.439 728.645,195.772 728.5,195C 729.613,193.606 730.947,192.439 732.5,191.5C 733.614,190.277 733.781,188.944 733,187.5C 725.957,183.906 719.791,179.239 714.5,173.5C 715.263,171.632 716.263,169.965 717.5,168.5C 722.152,167.238 726.819,167.238 731.5,168.5 Z"/></g>
<g><path style="opacity:1" fill="#f5ae86" d="M 712.5,176.5 C 712.5,178.167 712.5,179.833 712.5,181.5C 712.725,191.199 712.392,200.866 711.5,210.5C 710.029,218.79 706.029,225.457 699.5,230.5C 696.968,231.596 694.635,232.929 692.5,234.5C 686.238,235.908 679.905,236.908 673.5,237.5C 671.052,236.527 668.385,236.194 665.5,236.5C 657.578,235.046 651.744,238.046 648,245.5C 647.297,247.929 647.463,250.262 648.5,252.5C 633.722,243.829 629.722,231.496 636.5,215.5C 639.656,216.623 642.489,215.956 645,213.5C 644.255,210.249 643.255,206.916 642,203.5C 641.333,200.167 641.333,196.833 642,193.5C 645.668,189.325 648.668,189.992 651,195.5C 652.199,189.038 653.865,182.705 656,176.5C 659.051,172.23 663.218,170.563 668.5,171.5C 677.462,172.9 686.462,173.4 695.5,173C 699.628,172.602 703.294,171.102 706.5,168.5C 708.171,171.492 710.171,174.159 712.5,176.5 Z"/></g>
<g><path style="opacity:1" fill="#50a8bc" d="M 714.5,173.5 C 719.791,179.239 725.957,183.906 733,187.5C 733.781,188.944 733.614,190.277 732.5,191.5C 730.947,192.439 729.613,193.606 728.5,195C 728.645,195.772 728.978,196.439 729.5,197C 734.346,198.837 739.179,198.671 744,196.5C 746.226,197.033 748.393,197.7 750.5,198.5C 749.391,199.879 748.724,201.545 748.5,203.5C 749.944,212.496 751.277,221.496 752.5,230.5C 751.448,230.649 750.448,230.483 749.5,230C 749.833,229.667 750.167,229.333 750.5,229C 748.725,227.561 746.725,226.561 744.5,226C 745.833,224.16 745.666,223.66 744,224.5C 739.505,219.027 734.005,213.86 727.5,209C 727.833,208.667 728.167,208.333 728.5,208C 726.5,207 724.5,206 722.5,205C 721.028,201.695 718.695,199.195 715.5,197.5C 713.997,192.171 712.997,186.837 712.5,181.5C 712.5,179.833 712.5,178.167 712.5,176.5C 712.427,174.973 713.094,173.973 714.5,173.5 Z"/></g>
<g><path style="opacity:1" fill="#4c9fb3" d="M 712.5,181.5 C 712.997,186.837 713.997,192.171 715.5,197.5C 718.695,199.195 721.028,201.695 722.5,205C 724.5,206 726.5,207 728.5,208C 728.167,208.333 727.833,208.667 727.5,209C 734.005,213.86 739.505,219.027 744,224.5C 745.666,223.66 745.833,224.16 744.5,226C 746.725,226.561 748.725,227.561 750.5,229C 750.167,229.333 749.833,229.667 749.5,230C 750.448,230.483 751.448,230.649 752.5,230.5C 754.678,242.251 755.345,253.917 754.5,265.5C 754.879,260.703 754.379,256.036 753,251.5C 748.592,247.714 744.092,244.047 739.5,240.5C 738.289,239.726 738.289,238.893 739.5,238C 738.5,237.667 737.5,237.333 736.5,237C 736.833,236.667 737.167,236.333 737.5,236C 735.5,235 733.5,234 731.5,233C 731.833,232.667 732.167,232.333 732.5,232C 729.429,229.624 726.429,226.957 723.5,224C 722.552,223.517 721.552,223.351 720.5,223.5C 720.649,222.448 720.483,221.448 720,220.5C 719.086,221.654 718.253,221.487 717.5,220C 718.576,218.274 718.743,216.441 718,214.5C 715.931,212.915 713.764,211.581 711.5,210.5C 712.392,200.866 712.725,191.199 712.5,181.5 Z"/></g>
<g><path style="opacity:1" fill="#ab795d" d="M 643.5,193.5 C 644.496,193.414 645.329,193.748 646,194.5C 646.604,197.603 647.937,200.27 650,202.5C 650.699,204.074 650.365,205.407 649,206.5C 645.511,202.864 643.677,198.531 643.5,193.5 Z"/></g>
<g><path style="opacity:1" fill="#397d8d" d="M 530.5,140.5 C 532.863,142.083 532.863,143.916 530.5,146C 531.5,146.333 532.5,146.667 533.5,147C 530.833,148.667 528.167,150.333 525.5,152C 526.737,152.232 527.737,152.732 528.5,153.5C 512.646,169.849 500.813,188.849 493,210.5C 469.538,283.724 471.205,356.39 498,428.5C 504.346,441.877 512.179,454.21 521.5,465.5C 519.976,466.174 518.642,467.174 517.5,468.5C 516.583,467.873 515.583,467.539 514.5,467.5C 495.145,446.464 482.312,421.797 476,393.5C 459.581,328.567 462.581,264.567 485,201.5C 494.843,177.127 510.009,156.794 530.5,140.5 Z"/></g>
<g><path style="opacity:1" fill="#4493a6" d="M 711.5,210.5 C 713.764,211.581 715.931,212.915 718,214.5C 718.743,216.441 718.576,218.274 717.5,220C 718.253,221.487 719.086,221.654 720,220.5C 720.483,221.448 720.649,222.448 720.5,223.5C 721.552,223.351 722.552,223.517 723.5,224C 726.429,226.957 729.429,229.624 732.5,232C 732.167,232.333 731.833,232.667 731.5,233C 733.5,234 735.5,235 737.5,236C 737.167,236.333 736.833,236.667 736.5,237C 737.5,237.333 738.5,237.667 739.5,238C 738.289,238.893 738.289,239.726 739.5,240.5C 744.092,244.047 748.592,247.714 753,251.5C 754.379,256.036 754.879,260.703 754.5,265.5C 754.67,266.822 754.337,267.989 753.5,269C 751.5,269.667 749.5,269.667 747.5,269C 734.591,265.53 721.924,261.364 709.5,256.5C 708.473,250.727 706.973,245.06 705,239.5C 704.057,235.772 702.223,232.772 699.5,230.5C 706.029,225.457 710.029,218.79 711.5,210.5 Z"/></g>
<g><path style="opacity:0.999" fill="#50adc2" d="M 699.5,230.5 C 702.223,232.772 704.057,235.772 705,239.5C 706.973,245.06 708.473,250.727 709.5,256.5C 705.619,254.977 701.786,253.31 698,251.5C 696.315,245.751 694.482,240.084 692.5,234.5C 694.635,232.929 696.968,231.596 699.5,230.5 Z"/></g>
<g><path style="opacity:1" fill="#f4af88" d="M 586.5,249.5 C 584.99,250.836 583.323,252.003 581.5,253C 586.799,254.574 588.132,257.574 585.5,262C 588.306,263.305 589.14,265.472 588,268.5C 583.56,272.023 578.727,274.689 573.5,276.5C 567.387,277.899 565.554,275.899 568,270.5C 569.731,268.383 571.898,266.883 574.5,266C 572.674,265.708 570.841,265.875 569,266.5C 564.918,265.841 563.584,263.508 565,259.5C 566.41,258.213 567.91,257.046 569.5,256C 561.622,253.674 561.622,250.674 569.5,247C 564.534,247.369 562.367,245.202 563,240.5C 568.133,235.349 574.299,233.182 581.5,234C 587.008,236.155 587.675,239.155 583.5,243C 585.838,244.508 586.838,246.675 586.5,249.5 Z"/></g>
<g><path style="opacity:1" fill="#4290a3" d="M 1031.5,258.5 C 1030.5,288.329 1030.17,318.329 1030.5,348.5C 1026.83,348.5 1023.17,348.5 1019.5,348.5C 1019.5,323.5 1019.5,298.5 1019.5,273.5C 1019.14,263.443 1019.64,253.443 1021,243.5C 1025,238.167 1029,232.833 1033,227.5C 1032.05,237.768 1031.55,248.101 1031.5,258.5 Z"/></g>
<g><path style="opacity:1" fill="#a5775d" d="M 665.5,236.5 C 668.385,236.194 671.052,236.527 673.5,237.5C 670.972,238.508 668.805,240.174 667,242.5C 665.819,246.363 663.986,249.863 661.5,253C 657.54,254.757 653.54,254.923 649.5,253.5C 653.545,249.118 657.379,244.452 661,239.5C 662.129,237.859 663.629,236.859 665.5,236.5 Z"/></g>
<g><path style="opacity:1" fill="#c58b6b" d="M 665.5,236.5 C 663.629,236.859 662.129,237.859 661,239.5C 657.379,244.452 653.545,249.118 649.5,253.5C 648.833,253.5 648.5,253.167 648.5,252.5C 647.463,250.262 647.297,247.929 648,245.5C 651.744,238.046 657.578,235.046 665.5,236.5 Z"/></g>
<g><path style="opacity:1" fill="#418d9f" d="M 130.5,427.5 C 165.167,427.5 199.833,427.5 234.5,427.5C 234.5,427.833 234.5,428.167 234.5,428.5C 188.148,428.174 141.815,428.841 95.5,430.5C 95.3334,402.165 95.5,373.831 96,345.5C 155.416,277.422 214.083,208.755 272,139.5C 277.028,132.638 281.862,125.638 286.5,118.5C 289.833,117.167 293.167,117.167 296.5,118.5C 287.821,131.19 278.654,143.523 269,155.5C 215,218.167 161,280.833 107,343.5C 106.5,371.831 106.333,400.165 106.5,428.5C 114.475,427.724 122.475,427.39 130.5,427.5 Z"/></g>
<g><path style="opacity:1" fill="#357381" d="M 301.5,348.5 C 298.167,348.5 294.833,348.5 291.5,348.5C 291.5,321.5 291.5,294.5 291.5,267.5C 291.13,259.097 291.63,250.764 293,242.5C 296.333,237.833 299.667,233.167 303,228.5C 301.723,268.47 301.223,308.47 301.5,348.5 Z"/></g>
<g><path style="opacity:1" fill="#55b7cd" d="M 586.5,249.5 C 587.841,251.12 589.674,252.12 592,252.5C 591.539,283.534 595.706,313.868 604.5,343.5C 602.925,341.475 601.092,339.475 599,337.5C 598.383,336.551 598.549,335.718 599.5,335C 598.584,334.626 597.75,334.126 597,333.5C 595.396,331.008 594.062,328.341 593,325.5C 592.25,324.874 591.416,324.374 590.5,324C 590.833,323.667 591.167,323.333 591.5,323C 588.069,317.459 584.402,312.126 580.5,307C 580.833,306.667 581.167,306.333 581.5,306C 580.5,305.667 579.5,305.333 578.5,305C 578.972,302.601 577.972,300.601 575.5,299C 575.833,298.667 576.167,298.333 576.5,298C 575.552,297.517 574.552,297.351 573.5,297.5C 574.259,290.328 574.259,283.328 573.5,276.5C 578.727,274.689 583.56,272.023 588,268.5C 589.14,265.472 588.306,263.305 585.5,262C 588.132,257.574 586.799,254.574 581.5,253C 583.323,252.003 584.99,250.836 586.5,249.5 Z"/></g>
<g><path style="opacity:1" fill="#4da8bd" d="M 800.5,309.5 C 794.201,310.726 788.034,312.392 782,314.5C 778.452,313.804 774.619,314.47 770.5,316.5C 769.914,316.291 769.414,315.957 769,315.5C 764.274,317.542 759.608,319.209 755,320.5C 754,320.167 753,319.833 752,319.5C 747.366,320.809 743.032,322.809 739,325.5C 735.935,325.393 732.935,325.393 730,325.5C 727.888,327.922 725.888,327.922 724,325.5C 722.333,326.167 720.667,326.833 719,327.5C 717.853,326.542 716.853,326.875 716,328.5C 715.333,327.167 714.667,327.167 714,328.5C 713.303,324.465 713.47,320.465 714.5,316.5C 714.747,315.287 715.414,314.62 716.5,314.5C 737.089,317.906 757.422,316.739 777.5,311C 788.458,307.943 794.958,300.776 797,289.5C 797.491,279.808 797.491,270.141 797,260.5C 800.258,271.956 802.424,283.622 803.5,295.5C 803.514,300.434 802.514,305.101 800.5,309.5 Z"/></g>
<g><path style="opacity:1" fill="#4fabc0" d="M 573.5,297.5 C 574.552,297.351 575.552,297.517 576.5,298C 576.167,298.333 575.833,298.667 575.5,299C 577.972,300.601 578.972,302.601 578.5,305C 579.5,305.333 580.5,305.667 581.5,306C 581.167,306.333 580.833,306.667 580.5,307C 584.402,312.126 588.069,317.459 591.5,323C 591.167,323.333 590.833,323.667 590.5,324C 591.416,324.374 592.25,324.874 593,325.5C 594.062,328.341 595.396,331.008 597,333.5C 597.75,334.126 598.584,334.626 599.5,335C 598.549,335.718 598.383,336.551 599,337.5C 601.092,339.475 602.925,341.475 604.5,343.5C 610.194,365.722 621.194,384.889 637.5,401C 649.522,407.536 655.522,417.703 655.5,431.5C 673.101,422.89 685.101,409.224 691.5,390.5C 692.65,389.15 693.317,389.316 693.5,391C 692.351,392.73 692.351,394.396 693.5,396C 691.203,397.16 691.536,398.16 694.5,399C 693.552,399.483 692.552,399.649 691.5,399.5C 691.36,401.124 692.027,402.29 693.5,403C 693.049,405.947 692.383,409.113 691.5,412.5C 682.729,426.391 670.062,434.558 653.5,437C 646.986,437.82 640.653,437.653 634.5,436.5C 639.511,436.666 644.511,436.499 649.5,436C 648.57,435.009 647.404,434.509 646,434.5C 642.196,435.479 638.362,435.645 634.5,435C 636.158,434.275 636.658,433.108 636,431.5C 633.328,428.791 631.162,426.291 629.5,424C 630.451,423.282 630.617,422.449 630,421.5C 624.451,414.093 619.451,406.76 615,399.5C 614.383,398.551 614.549,397.718 615.5,397C 614.5,396.667 613.5,396.333 612.5,396C 612.5,395 612.5,394 612.5,393C 610.262,391.092 608.929,389.092 608.5,387C 607.107,385.829 606.273,384.329 606,382.5C 604.334,383.34 604.167,382.84 605.5,381C 603.106,379.552 601.606,377.386 601,374.5C 597.943,370.205 594.777,366.038 591.5,362C 591.957,361.586 592.291,361.086 592.5,360.5C 586.4,350.683 580.4,341.683 574.5,333.5C 573.521,321.58 573.188,309.58 573.5,297.5 Z"/></g>
<g><path style="opacity:1" fill="#56bbd2" d="M 785.5,323.5 C 781.613,326.864 777.279,329.697 772.5,332C 753.216,339.588 733.216,342.755 712.5,341.5C 713.082,340.069 713.915,338.736 715,337.5C 715.414,337.957 715.914,338.291 716.5,338.5C 718.621,337.65 720.788,336.65 723,335.5C 725.867,335.566 728.7,335.566 731.5,335.5C 732.478,335.023 733.311,334.357 734,333.5C 734.333,333.833 734.667,334.167 735,334.5C 742.165,332.981 749.498,330.981 757,328.5C 757.333,328.833 757.667,329.167 758,329.5C 761.366,328.626 764.7,327.626 768,326.5C 769.147,327.458 770.147,327.125 771,325.5C 771.561,326.022 772.228,326.355 773,326.5C 776.872,325.677 780.872,324.344 785,322.5C 785.399,322.728 785.565,323.062 785.5,323.5 Z"/></g>
<g><path style="opacity:0.694" fill="#4595a7" d="M 291.5,267.5 C 291.5,294.5 291.5,321.5 291.5,348.5C 294.833,348.5 298.167,348.5 301.5,348.5C 298.038,349.482 294.371,349.815 290.5,349.5C 290.169,321.995 290.502,294.662 291.5,267.5 Z"/></g>
<g><path style="opacity:1" fill="#51b0c6" d="M 800.5,309.5 C 796.763,315.572 791.763,320.239 785.5,323.5C 785.565,323.062 785.399,322.728 785,322.5C 780.872,324.344 776.872,325.677 773,326.5C 772.228,326.355 771.561,326.022 771,325.5C 770.147,327.125 769.147,327.458 768,326.5C 764.7,327.626 761.366,328.626 758,329.5C 757.667,329.167 757.333,328.833 757,328.5C 749.498,330.981 742.165,332.981 735,334.5C 734.667,334.167 734.333,333.833 734,333.5C 733.311,334.357 732.478,335.023 731.5,335.5C 728.7,335.566 725.867,335.566 723,335.5C 720.788,336.65 718.621,337.65 716.5,338.5C 715.914,338.291 715.414,337.957 715,337.5C 713.915,338.736 713.082,340.069 712.5,341.5C 711.246,361.941 706.746,381.608 699,400.5C 697.032,404.939 694.532,408.939 691.5,412.5C 692.383,409.113 693.049,405.947 693.5,403C 692.027,402.29 691.36,401.124 691.5,399.5C 692.552,399.649 693.552,399.483 694.5,399C 691.536,398.16 691.203,397.16 693.5,396C 692.351,394.396 692.351,392.73 693.5,391C 693.317,389.316 692.65,389.15 691.5,390.5C 694.287,382.689 696.453,374.689 698,366.5C 700.825,347.931 702.659,329.264 703.5,310.5C 707.808,312.321 712.141,313.654 716.5,314.5C 715.414,314.62 714.747,315.287 714.5,316.5C 713.47,320.465 713.303,324.465 714,328.5C 714.667,327.167 715.333,327.167 716,328.5C 716.853,326.875 717.853,326.542 719,327.5C 720.667,326.833 722.333,326.167 724,325.5C 725.888,327.922 727.888,327.922 730,325.5C 732.935,325.393 735.935,325.393 739,325.5C 743.032,322.809 747.366,320.809 752,319.5C 753,319.833 754,320.167 755,320.5C 759.608,319.209 764.274,317.542 769,315.5C 769.414,315.957 769.914,316.291 770.5,316.5C 774.619,314.47 778.452,313.804 782,314.5C 788.034,312.392 794.201,310.726 800.5,309.5 Z"/></g>
<g><path style="opacity:1" fill="#4ba4b9" d="M 574.5,333.5 C 580.4,341.683 586.4,350.683 592.5,360.5C 592.291,361.086 591.957,361.586 591.5,362C 594.777,366.038 597.943,370.205 601,374.5C 601.606,377.386 603.106,379.552 605.5,381C 604.167,382.84 604.334,383.34 606,382.5C 606.273,384.329 607.107,385.829 608.5,387C 608.929,389.092 610.262,391.092 612.5,393C 612.5,394 612.5,395 612.5,396C 613.5,396.333 614.5,396.667 615.5,397C 614.549,397.718 614.383,398.551 615,399.5C 619.451,406.76 624.451,414.093 630,421.5C 630.617,422.449 630.451,423.282 629.5,424C 631.162,426.291 633.328,428.791 636,431.5C 636.658,433.108 636.158,434.275 634.5,435C 638.362,435.645 642.196,435.479 646,434.5C 647.404,434.509 648.57,435.009 649.5,436C 644.511,436.499 639.511,436.666 634.5,436.5C 630.466,436.483 626.799,435.483 623.5,433.5C 624.376,433.631 625.043,433.298 625.5,432.5C 624.695,430.528 623.361,429.028 621.5,428C 622.167,427.667 622.833,427.333 623.5,427C 622.177,424.337 619.844,422.004 616.5,420C 616.833,419.667 617.167,419.333 617.5,419C 613.569,412.07 609.236,405.403 604.5,399C 604.833,398.667 605.167,398.333 605.5,398C 600.949,392.589 597.615,386.922 595.5,381C 592.866,376.516 589.532,372.516 585.5,369C 585.957,368.586 586.291,368.086 586.5,367.5C 585.294,365.851 583.961,364.351 582.5,363C 582.833,362.667 583.167,362.333 583.5,362C 582.5,361.667 581.5,361.333 580.5,361C 580.833,360.667 581.167,360.333 581.5,360C 579.623,357.749 578.123,355.249 577,352.5C 576.536,353.094 576.369,353.761 576.5,354.5C 575.348,347.691 574.681,340.691 574.5,333.5 Z"/></g>
<g><path style="opacity:1" fill="#57bdd5" d="M 1159.5,344.5 C 1171.48,345.007 1171.48,345.84 1159.5,347C 1146.17,348 1132.84,348.333 1119.5,348C 1133.05,347.535 1146.38,346.368 1159.5,344.5 Z"/></g>
<g><path style="opacity:0.831" fill="#5bc4dd" d="M 1031.5,258.5 C 1031.5,288.833 1031.5,319.167 1031.5,349.5C 999.498,349.667 967.498,349.5 935.5,349C 963.165,348.5 990.831,348.333 1018.5,348.5C 1018.17,323.328 1018.5,298.328 1019.5,273.5C 1019.5,298.5 1019.5,323.5 1019.5,348.5C 1023.17,348.5 1026.83,348.5 1030.5,348.5C 1030.17,318.329 1030.5,288.329 1031.5,258.5 Z"/></g>
<g><path style="opacity:1" fill="#499eb2" d="M 623.5,433.5 C 610.493,428.662 600.326,420.329 593,408.5C 583.78,391.614 578.28,373.614 576.5,354.5C 576.369,353.761 576.536,353.094 577,352.5C 578.123,355.249 579.623,357.749 581.5,360C 581.167,360.333 580.833,360.667 580.5,361C 581.5,361.333 582.5,361.667 583.5,362C 583.167,362.333 582.833,362.667 582.5,363C 583.961,364.351 585.294,365.851 586.5,367.5C 586.291,368.086 585.957,368.586 585.5,369C 589.532,372.516 592.866,376.516 595.5,381C 597.615,386.922 600.949,392.589 605.5,398C 605.167,398.333 604.833,398.667 604.5,399C 609.236,405.403 613.569,412.07 617.5,419C 617.167,419.333 616.833,419.667 616.5,420C 619.844,422.004 622.177,424.337 623.5,427C 622.833,427.333 622.167,427.667 621.5,428C 623.361,429.028 624.695,430.528 625.5,432.5C 625.043,433.298 624.376,433.631 623.5,433.5 Z"/></g>
<g><path style="opacity:1" fill="#3f899b" d="M 824.5,343.5 C 824.333,370.169 824.5,396.835 825,423.5C 825.212,420.56 826.712,418.726 829.5,418C 828.72,416.927 828.887,415.76 830,414.5C 830.333,414.833 830.667,415.167 831,415.5C 831.44,413.924 832.273,412.59 833.5,411.5C 832.975,410.808 832.308,410.308 831.5,410C 832.416,409.626 833.25,409.126 834,408.5C 834.169,393.328 834.669,378.328 835.5,363.5C 835.5,385.167 835.5,406.833 835.5,428.5C 831.452,428.395 827.452,428.728 823.5,429.5C 823.169,400.662 823.502,371.995 824.5,343.5 Z"/></g>
<g><path style="opacity:1" fill="#4aa0b4" d="M 130.5,427.5 C 187.331,426.501 244.331,426.168 301.5,426.5C 301.83,442.009 301.496,457.342 300.5,472.5C 300.5,457.5 300.5,442.5 300.5,427.5C 278.5,427.5 256.5,427.5 234.5,427.5C 199.833,427.5 165.167,427.5 130.5,427.5 Z"/></g>
<g><path style="opacity:1" fill="#52b1c7" d="M 411.5,427.5 C 404.416,426.874 397.75,427.541 391.5,429.5C 390.596,428.791 390.263,427.791 390.5,426.5C 397.687,426.175 404.687,426.509 411.5,427.5 Z"/></g>
<g><path style="opacity:1" fill="#295a65" d="M 411.5,427.5 C 421.165,427.878 430.831,428.211 440.5,428.5C 440.5,429.5 440.5,430.5 440.5,431.5C 424.194,430.22 407.861,429.554 391.5,429.5C 397.75,427.541 404.416,426.874 411.5,427.5 Z"/></g>
<g><path style="opacity:1" fill="#2e6471" d="M 234.5,428.5 C 234.5,428.167 234.5,427.833 234.5,427.5C 256.5,427.5 278.5,427.5 300.5,427.5C 300.5,442.5 300.5,457.5 300.5,472.5C 299.74,484.522 298.74,496.522 297.5,508.5C 326.508,508.167 355.508,508.5 384.5,509.5C 351.84,510.5 319.173,510.833 286.5,510.5C 289.405,483.254 290.738,455.921 290.5,428.5C 271.833,428.5 253.167,428.5 234.5,428.5 Z"/></g>
<g><path style="opacity:1" fill="#4ea8be" d="M 1018.5,426.5 C 1022.5,426.5 1026.5,426.5 1030.5,426.5C 1031.2,453.952 1029.86,481.285 1026.5,508.5C 1022.83,508.5 1019.17,508.5 1015.5,508.5C 1017.86,481.222 1018.86,453.888 1018.5,426.5 Z"/></g>
<g><path style="opacity:1" fill="#4290a2" d="M 521.5,465.5 C 543.68,490.6 571.347,506.433 604.5,513C 568.904,508.702 538.904,493.536 514.5,467.5C 515.583,467.539 516.583,467.873 517.5,468.5C 518.642,467.174 519.976,466.174 521.5,465.5 Z"/></g>
</svg>
